{
DisplayStrings = (
"`"
);
date = "2013-12-02 19:00:53 +0000";
designer = "Shinji Pons";
designerURL = www.shinjipons.com;
familyName = "Modulo 04";
fontMaster = (
{
alignmentZones = (
"{128, 129}",
"{128, 129}",
"{128, 129}",
"{0, -2}",
"{0, -2}"
);
ascender = 128;
capHeight = 128;
customParameters = (
{
name = familyName;
value = "Modulo 04";
}
);
descender = 0;
guideLines = (
{
position = "{-18, 62}";
},
{
angle = 90;
position = "{74, 135}";
},
{
angle = 90;
position = "{70, 135}";
},
{
position = "{-18, 66}";
},
{
angle = 90;
position = "{12, 143}";
},
{
angle = 90;
position = "{132, 136}";
},
{
position = "{-19, 124}";
},
{
position = "{-20, 4}";
},
{
angle = 90;
position = "{136, -22}";
},
{
angle = 90;
position = "{8, -30}";
}
);
horizontalStems = (
4
);
id = "940E2F63-624A-4C3D-A909-721782B4CF41";
verticalStems = (
4
);
weightValue = 4;
widthValue = 128;
xHeight = 128;
}
);
glyphs = (
{
glyphname = A;
lastChange = "2013-11-15 19:19:09 +0000";
layers = (
{
guideLines = (
{
position = "{-11, 64}";
showMeasurement = 1;
},
{
angle = 90;
position = "{50, -8}";
showMeasurement = 1;
}
);
layerId = "940E2F63-624A-4C3D-A909-721782B4CF41";
name = Regular;
paths = (
{
closed = 1;
nodes = (
"12 128 LINE",
"132 128 LINE",
"136 124 LINE",
"136 4 LINE",
"132 0 LINE",
"12 0 LINE",
"8 4 LINE",
"8 62 LINE",
"11.9985 66 LINE",
"70 66 LINE",
"74 62 LINE",
"12 62 LINE",
"12 4 LINE",
"132 4 LINE",
"132 124 LINE",
"8 124 LINE"
);
}
);
width = 144;
}
);
unicode = 0041;
},
{
glyphname = B;
lastChange = "2013-11-19 19:24:52 +0000";
layers = (
{
layerId = "940E2F63-624A-4C3D-A909-721782B4CF41";
name = Regular;
paths = (
{
closed = 1;
nodes = (
"132 128 LINE",
"12 128 LINE",
"8 124 LINE",
"8 4 LINE",
"12 0 LINE",
"12 124 LINE",
"132 124 LINE",
"132 66 LINE",
"70 66 LINE",
"74 62 LINE",
"132 62 LINE",
"132 4 LINE",
"70 4 LINE",
"74 0 LINE",
"132 0 LINE",
"136 4 LINE",
"136 124 LINE"
);
}
);
width = 144;
}
);
unicode = 0042;
},
{
glyphname = C;
lastChange = "2013-11-19 19:25:23 +0000";
layers = (
{
layerId = "940E2F63-624A-4C3D-A909-721782B4CF41";
name = Regular;
paths = (
{
closed = 1;
nodes = (
"12 0 LINE",
"8 4 LINE",
"8 124 LINE",
"12 128 LINE",
"132 128 LINE",
"136 124 LINE",
"12 124 LINE",
"12 4 LINE",
"136 4 LINE",
"132 0 LINE"
);
}
);
width = 144;
}
);
unicode = 0043;
},
{
glyphname = D;
lastChange = "2013-11-19 19:25:44 +0000";
layers = (
{
layerId = "940E2F63-624A-4C3D-A909-721782B4CF41";
name = Regular;
paths = (
{
closed = 1;
nodes = (
"136 124 LINE",
"132 128 LINE",
"12 128 LINE",
"8 124 LINE",
"132 124 LINE",
"132 4 LINE",
"12 4 LINE",
"12 66 LINE",
"8 62 LINE",
"8 4 LINE",
"12 0 LINE",
"132 0 LINE",
"136 4 LINE"
);
}
);
width = 144;
}
);
unicode = 0044;
},
{
glyphname = E;
lastChange = "2013-11-19 19:26:14 +0000";
layers = (
{
layerId = "940E2F63-624A-4C3D-A909-721782B4CF41";
name = Regular;
paths = (
{
closed = 1;
nodes = (
"132 62 LINE",
"136 66 LINE",
"136 124 LINE",
"132 128 LINE",
"74 128 LINE",
"70 124 LINE",
"132 124 LINE",
"132 66 LINE",
"12 66 LINE",
"12 128 LINE",
"8 124 LINE",
"8 4 LINE",
"12 0 LINE",
"132 0 LINE",
"136 4 LINE",
"12 4 LINE",
"12 62 LINE"
);
}
);
width = 144;
}
);
unicode = 0045;
},
{
glyphname = F;
lastChange = "2013-11-19 19:26:28 +0000";
layers = (
{
layerId = "940E2F63-624A-4C3D-A909-721782B4CF41";
name = Regular;
paths = (
{
closed = 1;
nodes = (
"12 0 LINE",
"12 62 LINE",
"132 62 LINE",
"136 66 LINE",
"12 66 LINE",
"12 124 LINE",
"132 124 LINE",
"136 128 LINE",
"12 128 LINE",
"8 124 LINE",
"8 4 LINE"
);
}
);
width = 144;
}
);
unicode = 0046;
},
{
glyphname = H;
lastChange = "2013-11-19 19:26:59 +0000";
layers = (
{
layerId = "940E2F63-624A-4C3D-A909-721782B4CF41";
name = Regular;
paths = (
{
closed = 1;
nodes = (
"132 128 LINE",
"132 66 LINE",
"12 66 LINE",
"12 128 LINE",
"8 124 LINE",
"8 4 LINE",
"12 0 LINE",
"12 62 LINE",
"132 62 LINE",
"132 0 LINE",
"136 4 LINE",
"136 124 LINE"
);
}
);
width = 144;
}
);
unicode = 0048;
},
{
glyphname = J;
lastChange = "2013-11-19 19:27:17 +0000";
layers = (
{
layerId = "940E2F63-624A-4C3D-A909-721782B4CF41";
name = Regular;
paths = (
{
closed = 1;
nodes = (
"132 128 LINE",
"74 128 LINE",
"70 124 LINE",
"132 124 LINE",
"132 4 LINE",
"8 4 LINE",
"12 0 LINE",
"132 0 LINE",
"136 4 LINE",
"136 124 LINE"
);
}
);
width = 144;
}
);
unicode = 004A;
},
{
glyphname = K;
lastChange = "2013-11-19 19:27:40 +0000";
layers = (
{
layerId = "940E2F63-624A-4C3D-A909-721782B4CF41";
name = Regular;
paths = (
{
closed = 1;
nodes = (
"136 124 LINE",
"132 128 LINE",
"74 128 LINE",
"70 124 LINE",
"70 66 LINE",
"12 66 LINE",
"12 128 LINE",
"8 124 LINE",
"8 4 LINE",
"12 0 LINE",
"12 62 LINE",
"132 62 LINE",
"132 0 LINE",
"136 4 LINE",
"136 62 LINE",
"132 66 LINE",
"74 66 LINE",
"74 124 LINE"
);
}
);
width = 144;
}
);
unicode = 004B;
},
{
glyphname = L;
lastChange = "2013-11-19 19:27:53 +0000";
layers = (
{
layerId = "940E2F63-624A-4C3D-A909-721782B4CF41";
name = Regular;
paths = (
{
closed = 1;
nodes = (
"12 0 LINE",
"132 0 LINE",
"136 4 LINE",
"12 4 LINE",
"12 128 LINE",
"8 124 LINE",
"8 4 LINE"
);
}
);
width = 144;
}
);
unicode = 004C;
},
{
glyphname = M;
lastChange = "2013-11-19 19:31:44 +0000";
layers = (
{
layerId = "940E2F63-624A-4C3D-A909-721782B4CF41";
name = Regular;
paths = (
{
closed = 1;
nodes = (
"12 128 LINE",
"8 124 LINE",
"8 4 LINE",
"12 0 LINE",
"12 124 LINE",
"70 124 LINE",
"70 4 LINE",
"74 0 LINE",
"74 124 LINE",
"132 124 LINE",
"132 0 LINE",
"136 4 LINE",
"136 124 LINE",
"132 128 LINE"
);
}
);
width = 144;
}
);
unicode = 004D;
},
{
glyphname = N;
lastChange = "2013-12-02 19:02:45 +0000";
layers = (
{
layerId = "940E2F63-624A-4C3D-A909-721782B4CF41";
name = Regular;
paths = (
{
closed = 1;
nodes = (
"132 128 LINE",
"132 4 LINE",
"74 4 LINE",
"74 124 LINE",
"70 128 LINE",
"12 128 LINE",
"8 124 LINE",
"8 4 LINE",
"12 0 LINE",
"12 124 LINE",
"70 124 LINE",
"70 4 LINE",
"74 0 LINE",
"132 0 LINE",
"136 4 LINE",
"136 124 LINE"
);
}
);
width = 144;
}
);
unicode = 004E;
},
{
glyphname = O;
lastChange = "2013-12-02 19:03:11 +0000";
layers = (
{
layerId = "940E2F63-624A-4C3D-A909-721782B4CF41";
name = Regular;
paths = (
{
closed = 1;
nodes = (
"132 128 LINE",
"12 128 LINE",
"8 124 LINE",
"8 4 LINE",
"12 0 LINE",
"132 0 LINE",
"136 4 LINE",
"136 124 LINE"
);
},
{
closed = 1;
nodes = (
"132 4 LINE",
"12 4 LINE",
"12 124 LINE",
"132 124 LINE"
);
}
);
width = 144;
}
);
unicode = 004F;
},
{
glyphname = P;
lastChange = "2013-12-02 19:03:30 +0000";
layers = (
{
layerId = "940E2F63-624A-4C3D-A909-721782B4CF41";
name = Regular;
paths = (
{
closed = 1;
nodes = (
"8 4 LINE",
"8 124 LINE",
"12 128 LINE",
"132 128 LINE",
"136 124 LINE",
"136 66 LINE",
"132 62 LINE",
"74 62 LINE",
"70 66 LINE",
"132 66 LINE",
"132 124 LINE",
"12 124 LINE",
"12 0 LINE"
);
}
);
width = 144;
}
);
unicode = 0050;
},
{
glyphname = Q;
lastChange = "2013-12-02 19:06:36 +0000";
layers = (
{
layerId = "940E2F63-624A-4C3D-A909-721782B4CF41";
name = Regular;
paths = (
{
closed = 1;
nodes = (
"132 128 LINE",
"12 128 LINE",
"8 124 LINE",
"8 4 LINE",
"12 0 LINE",
"132 0 LINE",
"136 4 LINE",
"136 124 LINE"
);
},
{
closed = 1;
nodes = (
"132 4 LINE",
"74 4 LINE",
"74 62 LINE",
"70 66 LINE",
"70 4 LINE",
"12 4 LINE",
"12 124 LINE",
"132 124 LINE"
);
}
);
width = 144;
}
);
unicode = 0051;
},
{
glyphname = R;
lastChange = "2013-12-02 19:07:13 +0000";
layers = (
{
layerId = "940E2F63-624A-4C3D-A909-721782B4CF41";
name = Regular;
paths = (
{
closed = 1;
nodes = (
"132 62 LINE",
"136 66 LINE",
"136 124 LINE",
"132 128 LINE",
"12 128 LINE",
"8 124 LINE",
"8 4 LINE",
"12 0 LINE",
"12 124 LINE",
"132 124 LINE",
"132 66 LINE",
"74 66 LINE",
"70 62 LINE",
"70 4 LINE",
"74 0 LINE",
"132 0 LINE",
"136 4 LINE",
"74 4 LINE",
"74 62 LINE"
);
}
);
width = 144;
}
);
unicode = 0052;
},
{
glyphname = T;
lastChange = "2013-12-02 19:07:27 +0000";
layers = (
{
layerId = "940E2F63-624A-4C3D-A909-721782B4CF41";
name = Regular;
paths = (
{
closed = 1;
nodes = (
"12 128 LINE",
"8 124 LINE",
"70 124 LINE",
"70 4 LINE",
"74 0 LINE",
"74 124 LINE",
"136 124 LINE",
"132 128 LINE"
);
}
);
width = 144;
}
);
unicode = 0054;
},
{
glyphname = V;
lastChange = "2013-12-02 19:08:26 +0000";
layers = (
{
layerId = "940E2F63-624A-4C3D-A909-721782B4CF41";
name = Regular;
paths = (
{
closed = 1;
nodes = (
"8 4 LINE",
"12 0 LINE",
"70 0 LINE",
"74 4 LINE",
"74 62 LINE",
"132 62 LINE",
"136 66 LINE",
"136 124 LINE",
"132 128 LINE",
"132 66 LINE",
"74 66 LINE",
"70 62 LINE",
"70 4 LINE",
"12 4 LINE",
"12 128 LINE",
"8 124 LINE"
);
}
);
width = 144;
}
);
unicode = 0056;
},
{
glyphname = X;
lastChange = "2013-12-02 19:09:20 +0000";
layers = (
{
layerId = "940E2F63-624A-4C3D-A909-721782B4CF41";
name = Regular;
paths = (
{
closed = 1;
nodes = (
"136 124 LINE",
"132 128 LINE",
"12 128 LINE",
"8 124 LINE",
"8 66 LINE",
"12 62 LINE",
"12 124 LINE",
"70 124 LINE",
"70 4 LINE",
"8 4 LINE",
"12 0 LINE",
"132 0 LINE",
"136 4 LINE",
"136 62 LINE",
"132 66 LINE",
"132 4 LINE",
"74 4 LINE",
"74 124 LINE"
);
}
);
width = 144;
}
);
unicode = 0058;
},
{
glyphname = Y;
lastChange = "2013-12-02 19:09:53 +0000";
layers = (
{
layerId = "940E2F63-624A-4C3D-A909-721782B4CF41";
name = Regular;
paths = (
{
closed = 1;
nodes = (
"132 128 LINE",
"132 66 LINE",
"12 66 LINE",
"12 128 LINE",
"8 124 LINE",
"8 66 LINE",
"12 62 LINE",
"132 62 LINE",
"132 4 LINE",
"8 4 LINE",
"12 0 LINE",
"132 0 LINE",
"136 4 LINE",
"136 124 LINE"
);
}
);
width = 144;
}
);
unicode = 0059;
},
{
glyphname = zero;
lastChange = "2013-06-14 01:49:01 +0100";
layers = (
{
components = (
{
name = O;
transform = "{1, 0, 0, 1, 0, 0}";
}
);
layerId = "940E2F63-624A-4C3D-A909-721782B4CF41";
name = Regular;
paths = (
{
closed = 1;
nodes = (
"71 63 LINE",
"73 63 LINE",
"73 65 LINE",
"71 65 LINE"
);
}
);
width = 144;
}
);
unicode = 0030;
},
{
glyphname = one;
lastChange = "2013-12-02 19:10:23 +0000";
layers = (
{
layerId = "940E2F63-624A-4C3D-A909-721782B4CF41";
name = Regular;
paths = (
{
closed = 1;
nodes = (
"74 4 LINE",
"74 124 LINE",
"70 128 LINE",
"12 128 LINE",
"8 124 LINE",
"70 124 LINE",
"70 4 LINE",
"8 4 LINE",
"12 0 LINE",
"132 0 LINE",
"136 4 LINE"
);
}
);
width = 144;
}
);
unicode = 0031;
},
{
glyphname = four;
lastChange = "2013-12-02 19:10:49 +0000";
layers = (
{
layerId = "940E2F63-624A-4C3D-A909-721782B4CF41";
name = Regular;
paths = (
{
closed = 1;
nodes = (
"132 128 LINE",
"132 66 LINE",
"12 66 LINE",
"12 128 LINE",
"8 124 LINE",
"8 66 LINE",
"12 62 LINE",
"132 62 LINE",
"132 0 LINE",
"136 4 LINE",
"136 124 LINE"
);
}
);
width = 144;
}
);
unicode = 0034;
},
{
glyphname = seven;
lastChange = "2013-12-02 19:11:17 +0000";
layers = (
{
layerId = "940E2F63-624A-4C3D-A909-721782B4CF41";
name = Regular;
paths = (
{
closed = 1;
nodes = (
"132 128 LINE",
"12 128 LINE",
"8 124 LINE",
"132 124 LINE",
"132 66 LINE",
"74 66 LINE",
"70 62 LINE",
"70 4 LINE",
"74 0 LINE",
"74 62 LINE",
"132 62 LINE",
"136 66 LINE",
"136 124 LINE"
);
}
);
width = 144;
}
);
unicode = 0037;
},
{
glyphname = eight;
lastChange = "2013-12-02 19:11:31 +0000";
layers = (
{
layerId = "940E2F63-624A-4C3D-A909-721782B4CF41";
name = Regular;
paths = (
{
closed = 1;
nodes = (
"132 66 LINE",
"12 66 LINE",
"12 124 LINE",
"132 124 LINE"
);
},
{
closed = 1;
nodes = (
"132 4 LINE",
"12 4 LINE",
"12 62 LINE",
"132 62 LINE"
);
},
{
closed = 1;
nodes = (
"132 128 LINE",
"12 128 LINE",
"8 124 LINE",
"8 4 LINE",
"12 0 LINE",
"132 0 LINE",
"136 4 LINE",
"136 124 LINE"
);
}
);
width = 144;
}
);
unicode = 0038;
},
{
glyphname = asterisk;
lastChange = "2013-12-02 19:11:43 +0000";
layers = (
{
components = (
{
name = plus;
transform = "{1, 0, 0, 1, 0, 0}";
}
);
layerId = "940E2F63-624A-4C3D-A909-721782B4CF41";
name = Regular;
paths = (
{
closed = 1;
nodes = (
"8 124 LINE",
"12 124 LINE",
"12 128 LINE"
);
},
{
closed = 1;
nodes = (
"132 124 LINE",
"136 124 LINE",
"132 128 LINE"
);
},
{
closed = 1;
nodes = (
"12 0 LINE",
"12 4 LINE",
"8 4 LINE"
);
},
{
closed = 1;
nodes = (
"132 0 LINE",
"136 4 LINE",
"132 4 LINE"
);
}
);
width = 144;
}
);
unicode = 002A;
},
{
glyphname = backslash;
lastChange = "2013-12-02 19:07:49 +0000";
layers = (
{
layerId = "940E2F63-624A-4C3D-A909-721782B4CF41";
name = Regular;
paths = (
{
closed = 1;
nodes = (
"8 4 LINE",
"12 0 LINE",
"12 128 LINE",
"8 124 LINE"
);
},
{
closed = 1;
nodes = (
"132 0 LINE",
"136 4 LINE",
"136 124 LINE",
"132 128 LINE"
);
},
{
closed = 1;
nodes = (
"70 4 LINE",
"74 0 LINE",
"74 124 LINE",
"70 128 LINE"
);
}
);
width = 144;
}
);
unicode = 005C;
},
{
glyphname = bullet;
lastChange = "2013-12-02 19:12:09 +0000";
layers = (
{
layerId = "940E2F63-624A-4C3D-A909-721782B4CF41";
name = Regular;
paths = (
{
closed = 1;
nodes = (
"12 128 LINE",
"8 124 LINE",
"136 124 LINE",
"132 128 LINE"
);
},
{
closed = 1;
nodes = (
"8 4 LINE",
"12 0 LINE",
"132 0 LINE",
"136 4 LINE"
);
},
{
closed = 1;
nodes = (
"12 66 LINE",
"8 62 LINE",
"132 62 LINE",
"136 66 LINE"
);
}
);
width = 144;
}
);
unicode = 2022;
},
{
glyphname = comma;
lastChange = "2013-12-02 19:12:36 +0000";
layers = (
{
layerId = "940E2F63-624A-4C3D-A909-721782B4CF41";
name = Regular;
paths = (
{
closed = 1;
nodes = (
"8 124 LINE",
"8 4 LINE",
"12 0 LINE",
"132 0 LINE",
"136 4 LINE",
"136 124 LINE",
"132 128 LINE",
"12 128 LINE"
);
}
);
width = 144;
}
);
unicode = 002C;
},
{
glyphname = ellipsis;
lastChange = "2013-12-02 19:13:02 +0000";
layers = (
{
layerId = "940E2F63-624A-4C3D-A909-721782B4CF41";
name = Regular;
paths = (
{
closed = 1;
nodes = (
"12 128 LINE",
"8 124 LINE",
"136 124 LINE",
"132 128 LINE"
);
},
{
closed = 1;
nodes = (
"12 66 LINE",
"8 62 LINE",
"132 62 LINE",
"136 66 LINE"
);
},
{
closed = 1;
nodes = (
"12 0 LINE",
"12 4 LINE",
"8 4 LINE"
);
},
{
closed = 1;
nodes = (
"70 0 LINE",
"74 4 LINE",
"70 4 LINE"
);
},
{
closed = 1;
nodes = (
"132 0 LINE",
"136 4 LINE",
"132 4 LINE"
);
}
);
width = 144;
}
);
unicode = 2026;
},
{
glyphname = exclam;
lastChange = "2013-12-02 19:15:36 +0000";
layers = (
{
layerId = "940E2F63-624A-4C3D-A909-721782B4CF41";
name = Regular;
paths = (
{
closed = 1;
nodes = (
"12 0 LINE",
"12 4 LINE",
"8 4 LINE"
);
},
{
closed = 1;
nodes = (
"74 0 LINE",
"74 4 LINE",
"70 4 LINE"
);
},
{
closed = 1;
nodes = (
"132 0 LINE",
"136 4 LINE",
"132 4 LINE"
);
},
{
closed = 1;
nodes = (
"8 66 LINE",
"12 62 LINE",
"12 128 LINE",
"8 124 LINE"
);
},
{
closed = 1;
nodes = (
"132 62 LINE",
"136 66 LINE",
"136 124 LINE",
"132 128 LINE"
);
},
{
closed = 1;
nodes = (
"70 66 LINE",
"74 62 LINE",
"74 124 LINE",
"70 128 LINE"
);
}
);
width = 144;
}
);
unicode = 0021;
},
{
glyphname = exclamdown;
lastChange = "2013-12-02 19:15:01 +0000";
layers = (
{
layerId = "940E2F63-624A-4C3D-A909-721782B4CF41";
name = Regular;
paths = (
{
closed = 1;
nodes = (
"8 4 LINE",
"12 0 LINE",
"12 66 LINE",
"8 66 LINE"
);
},
{
closed = 1;
nodes = (
"70 4 LINE",
"74 0 LINE",
"74 66 LINE",
"70 66 LINE"
);
},
{
closed = 1;
nodes = (
"132 0 LINE",
"136 4 LINE",
"136 66 LINE",
"132 66 LINE"
);
},
{
closed = 1;
nodes = (
"8 124 LINE",
"12 124 LINE",
"12 128 LINE"
);
},
{
closed = 1;
nodes = (
"70 124 LINE",
"74 124 LINE",
"70 128 LINE"
);
},
{
closed = 1;
nodes = (
"132 124 LINE",
"136 124 LINE",
"132 128 LINE"
);
}
);
width = 144;
}
);
unicode = 00A1;
},
{
glyphname = numbersign;
lastChange = "2013-12-02 19:18:25 +0000";
layers = (
{
layerId = "940E2F63-624A-4C3D-A909-721782B4CF41";
name = Regular;
paths = (
{
closed = 1;
nodes = (
"12 124 LINE",
"70 124 LINE",
"70 66 LINE",
"12 66 LINE"
);
},
{
closed = 1;
nodes = (
"74 124 LINE",
"132 124 LINE",
"132 66 LINE",
"74 66 LINE"
);
},
{
closed = 1;
nodes = (
"12 62 LINE",
"70 62 LINE",
"70 4 LINE",
"12 4 LINE"
);
},
{
closed = 1;
nodes = (
"74 62 LINE",
"132 62 LINE",
"132 4 LINE",
"74 4 LINE"
);
},
{
closed = 1;
nodes = (
"132 128 LINE",
"12 128 LINE",
"8 124 LINE",
"8 4 LINE",
"12 0 LINE",
"132 0 LINE",
"136 4 LINE",
"136 124 LINE"
);
}
);
width = 144;
}
);
unicode = 0023;
},
{
glyphname = question;
lastChange = "2013-12-02 19:18:56 +0000";
layers = (
{
layerId = "940E2F63-624A-4C3D-A909-721782B4CF41";
name = Regular;
paths = (
{
closed = 1;
nodes = (
"132 128 LINE",
"12 128 LINE",
"8 124 LINE",
"132 124 LINE",
"132 66 LINE",
"70 66 LINE",
"74 62 LINE",
"132 62 LINE",
"136 66 LINE",
"136 124 LINE"
);
},
{
closed = 1;
nodes = (
"74 0 LINE",
"74 4 LINE",
"70 4 LINE"
);
}
);
width = 144;
}
);
unicode = 003F;
},
{
glyphname = braceleft;
lastChange = "2013-12-02 19:21:57 +0000";
layers = (
{
layerId = "940E2F63-624A-4C3D-A909-721782B4CF41";
name = Regular;
paths = (
{
closed = 1;
nodes = (
"136 124 LINE",
"132 128 LINE",
"74 128 LINE",
"70 124 LINE",
"70 66 LINE",
"12 66 LINE",
"8 62 LINE",
"70 62 LINE",
"70 4 LINE",
"74 0 LINE",
"132 0 LINE",
"136 4 LINE",
"74 4 LINE",
"74 124 LINE"
);
}
);
width = 144;
}
);
unicode = 007B;
},
{
glyphname = braceright;
lastChange = "2013-12-02 19:22:15 +0000";
layers = (
{
layerId = "940E2F63-624A-4C3D-A909-721782B4CF41";
name = Regular;
paths = (
{
closed = 1;
nodes = (
"70 4 LINE",
"8 4 LINE",
"12 0 LINE",
"70 0 LINE",
"74 4 LINE",
"74 62 LINE",
"132 62 LINE",
"136 66 LINE",
"74 66 LINE",
"74 124 LINE",
"70 128 LINE",
"12 128 LINE",
"8 124 LINE",
"70 124 LINE"
);
}
);
width = 144;
}
);
unicode = 007D;
},
{
color = 0;
glyphname = dollar;
lastChange = "2013-12-02 19:00:16 +0000";
layers = (
{
components = (
{
name = s;
transform = "{1, 0, 0, 1, 0, 0}";
}
);
layerId = "940E2F63-624A-4C3D-A909-721782B4CF41";
name = Regular;
paths = (
{
closed = 1;
nodes = (
"70 1 LINE",
"74 1 LINE",
"74 125 LINE",
"70 125 LINE"
);
}
);
width = 144;
}
);
unicode = 0024;
},
{
color = 0;
glyphname = euro;
lastChange = "2013-12-02 19:22:57 +0000";
layers = (
{
components = (
{
name = braceleft;
transform = "{1, 0, 0, 1, 0, 0}";
}
);
layerId = "940E2F63-624A-4C3D-A909-721782B4CF41";
name = Regular;
paths = (
{
closed = 1;
nodes = (
"72 62 LINE",
"132 62 LINE",
"136 66 LINE",
"72 66 LINE"
);
}
);
width = 144;
}
);
unicode = 20AC;
},
{
glyphname = divide;
lastChange = "2013-12-02 19:23:19 +0000";
layers = (
{
layerId = "940E2F63-624A-4C3D-A909-721782B4CF41";
name = Regular;
paths = (
{
closed = 1;
nodes = (
"12 66 LINE",
"8 62 LINE",
"132 62 LINE",
"136 66 LINE"
);
},
{
closed = 1;
nodes = (
"74 0 LINE",
"74 4 LINE",
"70 4 LINE"
);
},
{
closed = 1;
nodes = (
"70 124 LINE",
"74 124 LINE",
"70 128 LINE"
);
}
);
width = 144;
}
);
unicode = 00F7;
},
{
color = 0;
glyphname = percent;
lastChange = "2013-12-02 19:01:59 +0000";
layers = (
{
layerId = "940E2F63-624A-4C3D-A909-721782B4CF41";
name = Regular;
paths = (
{
closed = 1;
nodes = (
"132 128 LINE",
"132 66 LINE",
"12 66 LINE",
"8 62 LINE",
"8 4 LINE",
"12 0 LINE",
"12 62 LINE",
"132 62 LINE",
"136 66 LINE",
"136 124 LINE"
);
},
{
closed = 1;
nodes = (
"70 128 LINE",
"12 128 LINE",
"8 124 LINE",
"74 124 LINE"
);
},
{
closed = 1;
nodes = (
"74 0 LINE",
"132 0 LINE",
"136 4 LINE",
"70 4 LINE"
);
}
);
width = 144;
}
);
unicode = 0025;
},
{
glyphname = plus;
lastChange = "2013-12-02 19:23:55 +0000";
layers = (
{
layerId = "940E2F63-624A-4C3D-A909-721782B4CF41";
name = Regular;
paths = (
{
closed = 1;
nodes = (
"136 66 LINE",
"74 66 LINE",
"74 124 LINE",
"70 128 LINE",
"70 66 LINE",
"12 66 LINE",
"8 62 LINE",
"70 62 LINE",
"70 4 LINE",
"74 0 LINE",
"74 62 LINE",
"132 62 LINE"
);
}
);
width = 144;
}
);
unicode = 002B;
},
{
glyphname = ampersand;
lastChange = "2013-12-02 19:24:35 +0000";
layers = (
{
layerId = "940E2F63-624A-4C3D-A909-721782B4CF41";
name = Regular;
paths = (
{
closed = 1;
nodes = (
"132 128 LINE",
"74 128 LINE",
"70 124 LINE",
"70 66 LINE",
"12 66 LINE",
"8 62 LINE",
"8 4 LINE",
"12 0 LINE",
"132 0 LINE",
"136 4 LINE",
"12 4 LINE",
"12 62 LINE",
"132 62 LINE",
"136 66 LINE",
"136 124 LINE"
);
},
{
closed = 1;
nodes = (
"132 66 LINE",
"74 66 LINE",
"74 124 LINE",
"132 124 LINE"
);
}
);
width = 144;
}
);
unicode = 0026;
},
{
glyphname = degree;
lastChange = "2013-12-02 19:25:26 +0000";
layers = (
{
layerId = "940E2F63-624A-4C3D-A909-721782B4CF41";
name = Regular;
paths = (
{
closed = 1;
nodes = (
"74 66 LINE",
"74 124 LINE",
"70 128 LINE",
"12 128 LINE",
"8 124 LINE",
"8 66 LINE",
"12 62 LINE",
"70 62 LINE"
);
},
{
closed = 1;
nodes = (
"70 124 LINE",
"70 66 LINE",
"12 66 LINE",
"12 124 LINE"
);
},
{
closed = 1;
nodes = (
"132 4 LINE",
"70 4 LINE",
"74 0 LINE",
"132 0 LINE",
"136 4 LINE",
"136 62 LINE",
"132 66 LINE"
);
}
);
width = 144;
}
);
unicode = 00B0;
},
